<svg width="190" height="23" viewBox="0 0 190 23" fill="none" xmlns="http://www.w3.org/2000/svg">
<path d="M0.22 22V0.699999H14.53V4.33H4.36V9.82H12.82V13.18H4.36V22H0.22ZM14.6875 17.35C14.6875 16.33 14.9675 15.44 15.5275 14.68C16.1075 13.9 16.9075 13.3 17.9275 12.88C18.9475 12.46 20.1175 12.25 21.4375 12.25C22.0975 12.25 22.7675 12.3 23.4475 12.4C24.1275 12.5 24.7175 12.66 25.2175 12.88V12.04C25.2175 11.04 24.9175 10.27 24.3175 9.73C23.7375 9.19 22.8675 8.92 21.7075 8.92C20.8475 8.92 20.0275 9.07 19.2475 9.37C18.4675 9.67 17.6475 10.11 16.7875 10.69L15.4975 8.05C16.5375 7.37 17.5975 6.86 18.6775 6.52C19.7775 6.18 20.9275 6.01 22.1275 6.01C24.3675 6.01 26.1075 6.57 27.3475 7.69C28.6075 8.81 29.2375 10.41 29.2375 12.49V17.5C29.2375 17.92 29.3075 18.22 29.4475 18.4C29.6075 18.58 29.8575 18.69 30.1975 18.73V22C29.8375 22.06 29.5075 22.11 29.2075 22.15C28.9275 22.19 28.6875 22.21 28.4875 22.21C27.6875 22.21 27.0775 22.03 26.6575 21.67C26.2575 21.31 26.0075 20.87 25.9075 20.35L25.8175 19.54C25.1375 20.42 24.2875 21.1 23.2675 21.58C22.2475 22.06 21.2075 22.3 20.1475 22.3C19.1075 22.3 18.1675 22.09 17.3275 21.67C16.5075 21.23 15.8575 20.64 15.3775 19.9C14.9175 19.14 14.6875 18.29 14.6875 17.35ZM24.4675 18.16C24.6875 17.92 24.8675 17.68 25.0075 17.44C25.1475 17.2 25.2175 16.98 25.2175 16.78V15.19C24.7375 14.99 24.2175 14.84 23.6575 14.74C23.0975 14.62 22.5675 14.56 22.0675 14.56C21.0275 14.56 20.1675 14.79 19.4875 15.25C18.8275 15.69 18.4975 16.28 18.4975 17.02C18.4975 17.42 18.6075 17.8 18.8275 18.16C19.0475 18.52 19.3675 18.81 19.7875 19.03C20.2075 19.25 20.7075 19.36 21.2875 19.36C21.8875 19.36 22.4775 19.25 23.0575 19.03C23.6375 18.79 24.1075 18.5 24.4675 18.16ZM32.9641 0.0999994H36.9841V16.96C36.9841 17.68 37.1041 18.17 37.3441 18.43C37.5841 18.67 37.9141 18.79 38.3341 18.79C38.6541 18.79 38.9841 18.75 39.3241 18.67C39.6641 18.59 39.9641 18.49 40.2241 18.37L40.7641 21.43C40.2241 21.69 39.5941 21.89 38.8741 22.03C38.1541 22.17 37.5041 22.24 36.9241 22.24C35.6641 22.24 34.6841 21.91 33.9841 21.25C33.3041 20.57 32.9641 19.61 32.9641 18.37V0.0999994ZM49.8055 22.3C48.5455 22.3 47.4055 22.09 46.3855 21.67C45.3655 21.23 44.4955 20.64 43.7755 19.9C43.0555 19.14 42.4955 18.28 42.0955 17.32C41.7155 16.34 41.5255 15.31 41.5255 14.23C41.5255 12.73 41.8555 11.36 42.5155 10.12C43.1955 8.88 44.1555 7.89 45.3955 7.15C46.6555 6.39 48.1355 6.01 49.8355 6.01C51.5555 6.01 53.0255 6.39 54.2455 7.15C55.4655 7.89 56.3955 8.88 57.0355 10.12C57.6955 11.34 58.0255 12.66 58.0255 14.08C58.0255 14.32 58.0155 14.57 57.9955 14.83C57.9755 15.07 57.9555 15.27 57.9355 15.43H45.7855C45.8655 16.23 46.0955 16.93 46.4755 17.53C46.8755 18.13 47.3755 18.59 47.9755 18.91C48.5955 19.21 49.2555 19.36 49.9555 19.36C50.7555 19.36 51.5055 19.17 52.2055 18.79C52.9255 18.39 53.4155 17.87 53.6755 17.23L57.1255 18.19C56.7455 18.99 56.1955 19.7 55.4755 20.32C54.7755 20.94 53.9455 21.43 52.9855 21.79C52.0255 22.13 50.9655 22.3 49.8055 22.3ZM45.6955 12.88H53.9155C53.8355 12.08 53.6055 11.39 53.2255 10.81C52.8655 10.21 52.3855 9.75 51.7855 9.43C51.1855 9.09 50.5155 8.92 49.7755 8.92C49.0555 8.92 48.3955 9.09 47.7955 9.43C47.2155 9.75 46.7355 10.21 46.3555 10.81C45.9955 11.39 45.7755 12.08 45.6955 12.88ZM66.7816 11.2C66.7816 9.9 67.0116 8.63 67.4716 7.39C67.9516 6.13 68.6416 4.99 69.5416 3.97C70.4416 2.93 71.5416 2.11 72.8416 1.51C74.1416 0.889999 75.6216 0.579999 77.2816 0.579999C79.2416 0.579999 80.9316 1.01 82.3516 1.87C83.7916 2.73 84.8616 3.85 85.5616 5.23L82.3816 7.42C82.0216 6.62 81.5516 5.99 80.9716 5.53C80.3916 5.05 79.7716 4.72 79.1116 4.54C78.4516 4.34 77.8016 4.24 77.1616 4.24C76.1216 4.24 75.2116 4.45 74.4316 4.87C73.6716 5.29 73.0316 5.84 72.5116 6.52C71.9916 7.2 71.6016 7.96 71.3416 8.8C71.1016 9.64 70.9816 10.48 70.9816 11.32C70.9816 12.26 71.1316 13.17 71.4316 14.05C71.7316 14.91 72.1516 15.68 72.6916 16.36C73.2516 17.02 73.9116 17.55 74.6716 17.95C75.4516 18.33 76.3016 18.52 77.2216 18.52C77.8816 18.52 78.5516 18.41 79.2316 18.19C79.9116 17.97 80.5416 17.62 81.1216 17.14C81.7016 16.66 82.1516 16.04 82.4716 15.28L85.8616 17.23C85.4416 18.29 84.7516 19.19 83.7916 19.93C82.8516 20.67 81.7916 21.23 80.6116 21.61C79.4316 21.99 78.2616 22.18 77.1016 22.18C75.5816 22.18 74.1916 21.87 72.9316 21.25C71.6716 20.61 70.5816 19.77 69.6616 18.73C68.7616 17.67 68.0516 16.49 67.5316 15.19C67.0316 13.87 66.7816 12.54 66.7816 11.2ZM95.4494 22.3C94.1694 22.3 93.0194 22.09 91.9994 21.67C90.9794 21.23 90.1094 20.63 89.3894 19.87C88.6894 19.11 88.1494 18.24 87.7694 17.26C87.3894 16.28 87.1994 15.25 87.1994 14.17C87.1994 13.07 87.3894 12.03 87.7694 11.05C88.1494 10.07 88.6894 9.2 89.3894 8.44C90.1094 7.68 90.9794 7.09 91.9994 6.67C93.0194 6.23 94.1694 6.01 95.4494 6.01C96.7294 6.01 97.8694 6.23 98.8694 6.67C99.8894 7.09 100.759 7.68 101.479 8.44C102.199 9.2 102.739 10.07 103.099 11.05C103.479 12.03 103.669 13.07 103.669 14.17C103.669 15.25 103.479 16.28 103.099 17.26C102.739 18.24 102.199 19.11 101.479 19.87C100.779 20.63 99.9194 21.23 98.8994 21.67C97.8794 22.09 96.7294 22.3 95.4494 22.3ZM91.3394 14.17C91.3394 15.09 91.5194 15.91 91.8794 16.63C92.2394 17.33 92.7294 17.88 93.3494 18.28C93.9694 18.68 94.6694 18.88 95.4494 18.88C96.2094 18.88 96.8994 18.68 97.5194 18.28C98.1394 17.86 98.6294 17.3 98.9894 16.6C99.3694 15.88 99.5594 15.06 99.5594 14.14C99.5594 13.24 99.3694 12.43 98.9894 11.71C98.6294 10.99 98.1394 10.43 97.5194 10.03C96.8994 9.63 96.2094 9.43 95.4494 9.43C94.6694 9.43 93.9694 9.64 93.3494 10.06C92.7294 10.46 92.2394 11.02 91.8794 11.74C91.5194 12.44 91.3394 13.25 91.3394 14.17ZM120.993 22H116.973V13.18C116.973 11.92 116.753 11 116.313 10.42C115.873 9.84 115.263 9.55 114.483 9.55C113.943 9.55 113.393 9.69 112.833 9.97C112.293 10.25 111.803 10.64 111.363 11.14C110.923 11.62 110.603 12.18 110.403 12.82V22H106.383V6.28H110.013V9.19C110.413 8.51 110.923 7.94 111.543 7.48C112.163 7 112.873 6.64 113.673 6.4C114.493 6.14 115.353 6.01 116.253 6.01C117.233 6.01 118.033 6.19 118.653 6.55C119.293 6.89 119.773 7.36 120.093 7.96C120.433 8.54 120.663 9.2 120.783 9.94C120.923 10.68 120.993 11.43 120.993 12.19V22ZM131.748 22.3C130.468 22.3 129.318 22.09 128.298 21.67C127.278 21.23 126.408 20.63 125.688 19.87C124.988 19.11 124.448 18.24 124.068 17.26C123.688 16.28 123.498 15.25 123.498 14.17C123.498 13.07 123.688 12.03 124.068 11.05C124.448 10.07 124.988 9.2 125.688 8.44C126.408 7.68 127.278 7.09 128.298 6.67C129.318 6.23 130.468 6.01 131.748 6.01C133.028 6.01 134.168 6.23 135.168 6.67C136.188 7.09 137.058 7.68 137.778 8.44C138.498 9.2 139.038 10.07 139.398 11.05C139.778 12.03 139.968 13.07 139.968 14.17C139.968 15.25 139.778 16.28 139.398 17.26C139.038 18.24 138.498 19.11 137.778 19.87C137.078 20.63 136.218 21.23 135.198 21.67C134.178 22.09 133.028 22.3 131.748 22.3ZM127.638 14.17C127.638 15.09 127.818 15.91 128.178 16.63C128.538 17.33 129.028 17.88 129.648 18.28C130.268 18.68 130.968 18.88 131.748 18.88C132.508 18.88 133.198 18.68 133.818 18.28C134.438 17.86 134.928 17.3 135.288 16.6C135.668 15.88 135.858 15.06 135.858 14.14C135.858 13.24 135.668 12.43 135.288 11.71C134.928 10.99 134.438 10.43 133.818 10.03C133.198 9.63 132.508 9.43 131.748 9.43C130.968 9.43 130.268 9.64 129.648 10.06C129.028 10.46 128.538 11.02 128.178 11.74C127.818 12.44 127.638 13.25 127.638 14.17ZM148.472 22.3C147.132 22.3 145.852 22.08 144.632 21.64C143.412 21.2 142.362 20.55 141.482 19.69L142.922 17.08C143.862 17.84 144.782 18.4 145.682 18.76C146.602 19.12 147.482 19.3 148.322 19.3C149.102 19.3 149.722 19.16 150.182 18.88C150.662 18.6 150.902 18.18 150.902 17.62C150.902 17.24 150.772 16.95 150.512 16.75C150.252 16.53 149.872 16.34 149.372 16.18C148.892 16.02 148.302 15.84 147.602 15.64C146.442 15.26 145.472 14.89 144.692 14.53C143.912 14.17 143.322 13.72 142.922 13.18C142.542 12.62 142.352 11.91 142.352 11.05C142.352 10.01 142.612 9.12 143.132 8.38C143.672 7.62 144.412 7.03 145.352 6.61C146.312 6.19 147.432 5.98 148.712 5.98C149.832 5.98 150.892 6.16 151.892 6.52C152.892 6.86 153.802 7.42 154.622 8.2L153.002 10.75C152.202 10.13 151.442 9.68 150.722 9.4C150.002 9.1 149.272 8.95 148.532 8.95C148.112 8.95 147.712 9 147.332 9.1C146.972 9.2 146.672 9.37 146.432 9.61C146.212 9.83 146.102 10.15 146.102 10.57C146.102 10.95 146.202 11.25 146.402 11.47C146.622 11.67 146.942 11.85 147.362 12.01C147.802 12.17 148.332 12.35 148.952 12.55C150.212 12.91 151.272 13.28 152.132 13.66C153.012 14.04 153.672 14.51 154.112 15.07C154.552 15.61 154.772 16.36 154.772 17.32C154.772 18.88 154.202 20.1 153.062 20.98C151.922 21.86 150.392 22.3 148.472 22.3ZM164.826 22.3C163.546 22.3 162.396 22.09 161.376 21.67C160.356 21.23 159.486 20.63 158.766 19.87C158.046 19.09 157.486 18.21 157.086 17.23C156.706 16.25 156.516 15.22 156.516 14.14C156.516 12.66 156.846 11.31 157.506 10.09C158.186 8.85 159.146 7.86 160.386 7.12C161.626 6.38 163.096 6.01 164.796 6.01C166.496 6.01 167.956 6.38 169.176 7.12C170.396 7.86 171.306 8.83 171.906 10.03L167.976 11.23C167.636 10.65 167.186 10.21 166.626 9.91C166.066 9.59 165.446 9.43 164.766 9.43C164.006 9.43 163.306 9.63 162.666 10.03C162.046 10.41 161.556 10.96 161.196 11.68C160.836 12.38 160.656 13.2 160.656 14.14C160.656 15.06 160.836 15.88 161.196 16.6C161.576 17.3 162.076 17.86 162.696 18.28C163.316 18.68 164.006 18.88 164.766 18.88C165.246 18.88 165.696 18.8 166.116 18.64C166.556 18.48 166.946 18.26 167.286 17.98C167.626 17.7 167.876 17.38 168.036 17.02L171.966 18.22C171.606 19 171.076 19.7 170.376 20.32C169.696 20.94 168.886 21.43 167.946 21.79C167.026 22.13 165.986 22.3 164.826 22.3ZM181.553 22.3C180.273 22.3 179.123 22.09 178.103 21.67C177.083 21.23 176.213 20.63 175.493 19.87C174.793 19.11 174.253 18.24 173.873 17.26C173.493 16.28 173.303 15.25 173.303 14.17C173.303 13.07 173.493 12.03 173.873 11.05C174.253 10.07 174.793 9.2 175.493 8.44C176.213 7.68 177.083 7.09 178.103 6.67C179.123 6.23 180.273 6.01 181.553 6.01C182.833 6.01 183.973 6.23 184.973 6.67C185.993 7.09 186.863 7.68 187.583 8.44C188.303 9.2 188.843 10.07 189.203 11.05C189.583 12.03 189.773 13.07 189.773 14.17C189.773 15.25 189.583 16.28 189.203 17.26C188.843 18.24 188.303 19.11 187.583 19.87C186.883 20.63 186.023 21.23 185.003 21.67C183.983 22.09 182.833 22.3 181.553 22.3ZM177.443 14.17C177.443 15.09 177.623 15.91 177.983 16.63C178.343 17.33 178.833 17.88 179.453 18.28C180.073 18.68 180.773 18.88 181.553 18.88C182.313 18.88 183.003 18.68 183.623 18.28C184.243 17.86 184.733 17.3 185.093 16.6C185.473 15.88 185.663 15.06 185.663 14.14C185.663 13.24 185.473 12.43 185.093 11.71C184.733 10.99 184.243 10.43 183.623 10.03C183.003 9.63 182.313 9.43 181.553 9.43C180.773 9.43 180.073 9.64 179.453 10.06C178.833 10.46 178.343 11.02 177.983 11.74C177.623 12.44 177.443 13.25 177.443 14.17Z" fill="white"/>
</svg>
